<?xml version="1.0" standalone="no"?>
<!DOCTYPE svg PUBLIC "-//W3C//DTD SVG 20010904//EN"
 "http://www.w3.org/TR/2001/REC-SVG-20010904/DTD/svg10.dtd">
<svg version="1.0" xmlns="http://www.w3.org/2000/svg"
 width="700.000000pt" height="700.000000pt" viewBox="0 0 700.000000 700.000000"
 preserveAspectRatio="xMidYMid meet">
<metadata>
Created by potrace 1.14, written by Peter Selinger 2001-2017
</metadata>
<g transform="translate(0.000000,700.000000) scale(0.100000,-0.100000)"
fill="#000000" stroke="none">
<path d="M3658 6755 c-2 -1 -39 -6 -84 -9 -44 -4 -89 -8 -100 -10 -10 -2 -39
-7 -64 -10 -158 -24 -336 -66 -485 -113 -507 -162 -973 -442 -1372 -824 -46
-44 -83 -76 -83 -71 0 4 -14 72 -30 152 -60 286 -121 586 -132 648 -12 66 -21
66 -32 2 -3 -19 -8 -46 -11 -60 -2 -14 -18 -92 -34 -175 -17 -82 -33 -166 -36
-185 -3 -19 -24 -127 -45 -240 -21 -113 -41 -216 -43 -230 -3 -14 -16 -83 -30
-155 -15 -71 -28 -141 -30 -155 -3 -14 -10 -53 -17 -88 -7 -34 -11 -64 -9 -66
2 -3 38 44 80 102 130 181 351 438 369 427 4 -3 11 -22 14 -42 22 -121 99
-479 104 -485 4 -4 27 -10 52 -13 25 -3 54 -8 65 -10 11 -2 24 -4 28 -4 10 -1
-10 -27 -91 -118 -297 -332 -572 -783 -739 -1213 -41 -105 -113 -321 -113
-339 0 -9 -5 -23 -10 -31 -9 -14 -6 61 5 118 1 9 6 46 10 82 3 36 8 76 10 90
10 64 38 307 38 325 0 11 -48 100 -108 198 l-108 178 -39 -98 c-39 -100 -110
-311 -147 -438 -26 -92 -85 -350 -96 -425 -3 -20 -7 -45 -9 -55 -11 -58 -32
-226 -41 -330 -14 -165 -17 -223 -17 -380 0 -182 7 -334 22 -455 5 -41 12 -97
15 -125 10 -81 17 -127 35 -225 18 -102 32 -168 47 -225 8 -33 16 -67 18 -75
34 -150 140 -452 230 -655 33 -74 144 -296 155 -310 4 -5 23 -37 41 -70 33
-61 189 -303 189 -293 0 3 -34 76 -75 161 -92 192 -189 423 -243 582 -43 125
-101 322 -108 365 -3 14 -7 32 -10 40 -6 18 -33 151 -40 199 -2 19 -7 48 -10
65 -22 122 -32 284 -29 491 2 127 6 250 9 275 15 117 27 183 72 405 21 107
145 498 164 518 4 5 4 -11 0 -35 -5 -23 -11 -67 -15 -97 -4 -30 -8 -61 -10
-70 -1 -9 -6 -43 -9 -76 -4 -33 -8 -71 -11 -85 -2 -14 -7 -47 -10 -75 -3 -27
-10 -86 -16 -130 -5 -44 -12 -98 -15 -120 -2 -22 -7 -58 -10 -80 -4 -26 -3
-37 4 -30 10 11 285 374 501 662 l136 182 25 -28 c29 -32 47 -55 194 -241 59
-74 115 -144 124 -155 9 -11 84 -104 165 -207 82 -104 150 -188 153 -188 5 0
0 46 -11 110 -2 14 -7 45 -10 70 -3 25 -7 54 -9 65 -2 11 -7 45 -10 75 -4 30
-8 66 -11 80 -5 31 -12 82 -19 140 -3 25 -13 92 -21 150 -8 58 -17 128 -20
155 -3 28 -10 75 -15 105 -5 30 -12 78 -15 105 -3 28 -7 61 -10 75 -2 14 -7
49 -10 79 -4 30 -8 62 -10 73 -2 10 -9 62 -16 116 -11 91 -10 99 8 132 17 30
235 396 263 440 5 8 57 96 115 195 59 99 117 196 130 215 12 19 32 52 44 73
l23 37 -24 1 c-13 1 -34 3 -48 4 -14 1 -72 5 -130 9 -58 5 -112 9 -120 11 -9
2 -61 6 -117 10 -56 4 -110 8 -120 10 -10 2 -27 4 -38 4 -24 1 55 84 220 230
158 140 270 225 435 332 174 113 165 108 315 184 373 192 803 313 1210 342
138 10 423 10 536 0 831 -72 1615 -500 2200 -1202 50 -60 96 -120 102 -132 5
-13 14 -23 18 -23 5 0 -3 20 -16 45 -14 25 -37 66 -51 92 -99 180 -291 451
-438 618 -235 267 -531 515 -829 694 -270 162 -635 308 -917 367 -41 8 -84 17
-95 20 -54 12 -151 26 -275 41 -42 5 -517 13 -522 8z"/>
<path d="M957 5144 c-1 -1 -24 -5 -52 -8 -27 -4 -63 -9 -80 -12 -16 -3 -41 -7
-55 -8 -29 -4 -313 -45 -350 -51 -14 -2 -45 -6 -70 -10 -76 -11 -104 -16 -106
-18 -1 -1 52 -85 117 -187 65 -102 124 -195 131 -207 43 -73 123 -195 130
-199 5 -3 24 30 44 73 86 190 208 414 305 561 l48 72 -30 -2 c-16 -1 -31 -3
-32 -4z"/>
<path d="M2912 3855 c-4 -5 -7 -92 -8 -192 l-2 -182 152 0 c83 0 169 0 191 0
l41 -1 -3 -292 c-1 -161 -5 -555 -8 -874 l-6 -582 130 0 131 0 1 136 c1 198 8
894 13 1275 2 180 6 330 9 333 3 4 94 6 201 6 l195 -1 -2 192 -2 192 -513 0
c-337 0 -516 -3 -520 -10z"/>
<path d="M4676 3855 c-28 -6 -67 -19 -86 -28 -143 -70 -287 -354 -326 -643 -3
-27 -8 -52 -10 -55 -1 -3 -6 -46 -11 -95 -13 -165 -7 -497 13 -622 7 -48 14
-86 19 -112 3 -14 7 -37 10 -51 11 -58 67 -215 98 -273 42 -79 129 -167 192
-195 75 -33 190 -47 412 -49 184 -2 202 0 206 16 3 9 5 96 6 193 l1 177 -182
0 c-180 1 -267 10 -311 33 -74 38 -120 100 -146 194 -20 76 -40 231 -31 246 5
7 105 11 341 11 l334 0 2 192 3 192 -338 0 -337 0 1 59 c4 221 76 383 185 416
43 13 154 20 344 22 l150 2 0 190 0 190 -244 0 c-134 0 -267 -5 -295 -10z"/>
<path d="M5550 3857 c0 -8 47 -140 122 -342 16 -44 48 -129 70 -190 22 -60 46
-126 53 -145 29 -78 88 -239 111 -304 l24 -69 -55 -141 c-31 -78 -60 -150 -65
-161 -5 -11 -32 -78 -59 -150 -27 -71 -93 -239 -145 -373 -53 -133 -96 -244
-96 -245 0 -2 67 -4 149 -5 108 -1 151 2 158 11 9 11 93 230 97 252 1 6 5 16
9 22 5 7 10 21 12 30 3 15 28 84 131 362 20 53 21 52 74 -102 21 -61 49 -139
61 -172 59 -164 122 -342 126 -360 12 -43 19 -44 174 -43 139 0 160 4 142 22
-4 3 -8 12 -9 19 -2 12 -81 228 -109 297 -7 19 -46 123 -85 230 -39 107 -76
206 -81 220 -6 13 -29 74 -50 135 -22 60 -45 119 -50 130 -8 16 6 62 71 225
44 113 85 214 90 225 10 20 250 625 250 629 0 1 -71 1 -157 1 l-157 -1 -43
-109 c-24 -61 -43 -110 -42 -110 0 0 -4 -11 -9 -25 -5 -14 -21 -56 -35 -95
-14 -38 -50 -135 -80 -215 l-54 -145 -72 220 c-39 121 -75 229 -80 240 -5 11
-24 69 -43 130 l-34 110 -157 0 c-86 0 -157 -3 -157 -8z"/>
<path d="M3730 965 l0 -562 48 1 47 1 0 242 c1 133 4 246 9 250 4 4 67 8 139
8 l132 0 3 62 3 62 -143 3 -142 3 -1 165 c0 91 1 174 3 185 3 19 11 20 168 20
l164 -1 0 61 0 61 -215 0 -215 0 0 -561z"/>
<path d="M4288 1516 c-6 -21 0 -741 7 -796 20 -166 63 -255 149 -305 63 -37
137 -40 204 -8 101 48 154 157 168 343 5 67 9 693 5 760 -1 11 -12 15 -40 15
-22 0 -42 -2 -45 -6 -3 -3 -6 -177 -6 -386 -1 -394 -7 -458 -46 -536 -70 -138
-243 -99 -280 63 -4 19 -10 42 -12 50 -2 8 -6 193 -7 410 -2 217 -4 397 -4
400 -2 11 -90 7 -93 -4z"/>
<path d="M5025 1522 c-3 -3 -5 -256 -5 -562 l0 -556 46 0 46 0 -4 462 c-1 254
-2 462 -2 461 1 -1 21 -56 44 -122 43 -121 187 -501 263 -695 l42 -106 48 0
47 -1 0 562 0 561 -46 0 -46 0 4 -464 c2 -269 0 -452 -5 -436 -5 16 -12 38
-17 49 -5 11 -14 38 -21 60 -6 22 -38 108 -69 190 -32 83 -97 251 -145 375
l-86 226 -45 0 c-24 1 -46 -2 -49 -4z"/>
<path d="M5755 1522 c-3 -3 -5 -256 -5 -563 l0 -557 133 3 c93 1 143 7 169 18
154 65 233 240 236 524 2 145 -10 238 -43 334 -40 120 -117 204 -209 231 -40
11 -271 20 -281 10z m279 -137 c107 -51 163 -211 153 -444 -7 -158 -13 -191
-47 -267 -48 -107 -103 -145 -217 -149 l-73 -3 0 37 c-1 77 -1 768 0 810 l0
44 74 -6 c41 -3 90 -13 110 -22z"/>
</g>
</svg>
