<?xml version="1.0" encoding="UTF-8" standalone="no"?>
<svg
   data-noselect=""
   viewBox="0 0 300 100"
   width="300"
   height="100"
   preserveAspectRatio="none"
   version="1.1"
   class="svg-canvas"
   id="svg61"
   sodipodi:docname="tex.fund.logo.svg"
   inkscape:version="1.1.2 (76b9e6a115, 2022-02-25)"
   xmlns:inkscape="http://www.inkscape.org/namespaces/inkscape"
   xmlns:sodipodi="http://sodipodi.sourceforge.net/DTD/sodipodi-0.dtd"
   xmlns="http://www.w3.org/2000/svg"
   xmlns:svg="http://www.w3.org/2000/svg">
  <sodipodi:namedview
     id="namedview63"
     pagecolor="#ffffff"
     bordercolor="#666666"
     borderopacity="1.0"
     inkscape:pageshadow="2"
     inkscape:pageopacity="0.0"
     inkscape:pagecheckerboard="true"
     showgrid="false"
     inkscape:zoom="2"
     inkscape:cx="130.25"
     inkscape:cy="5.75"
     inkscape:window-width="1848"
     inkscape:window-height="1009"
     inkscape:window-x="72"
     inkscape:window-y="34"
     inkscape:window-maximized="1"
     inkscape:current-layer="svg61" />
  <defs
     id="defs2" />
  <g
     fill="#c7b286"
     id="g17"
     transform="matrix(0.79725581,0,0,1.6342479,1.674518,-1.2515432)"
     style="color-interpolation:auto;fill:#a02c2c;color-rendering:auto;image-rendering:auto;shape-rendering:auto;text-rendering:auto">
    <path
       clip-rule="evenodd"
       d="m 12.143,32.414 -1.851,7.29 11.317,-7.509 11.534,7.291 L 29.552,26.319 39.89,17.614 29.226,17.178 c -7.834,4.134 -13.82,9.358 -17.083,15.236 z"
       fill-rule="evenodd"
       stroke-width="0"
       id="path9"
       style="fill:#a02c2c" />
    <path
       clip-rule="evenodd"
       d="M 24.439,12.172 21.282,4.446 16.493,17.068 3,18.048 9.748,23.38 c 3.59,-4.244 8.596,-8.052 14.691,-11.208 z"
       fill-rule="evenodd"
       stroke-width="0"
       id="path11"
       style="fill:#a02c2c" />
    <path
       clip-rule="evenodd"
       d="M 63.832,3.03 C 48.706,3.358 34.995,6.839 24.44,12.172 l 1.958,4.788 2.83,0.218 C 39.783,11.52 53.821,7.928 69.274,7.602 88.753,7.058 106.274,11.955 117.59,19.79 107.033,9.342 86.794,2.487 63.832,3.03 Z"
       fill-rule="evenodd"
       stroke-width="0"
       id="path13"
       style="fill:#a02c2c" />
    <path
       clip-rule="evenodd"
       d="M 9.748,23.38 C 5.722,28.168 3.545,33.5 3.654,39.05 3.871,46.994 8.877,54.286 17.039,59.945 12.143,55.157 7.789,49.715 7.681,43.621 7.571,39.813 9.53,35.786 12.143,32.414 l 1.413,-5.877 z"
       fill-rule="evenodd"
       stroke-width="0"
       id="path15"
       style="fill:#a02c2c" />
  </g>
  <g
     id="shape_WTTVPDut3f"
     transform="matrix(1.2776792,0,0,0.79074638,10.347423,-147.06997)"
     filter=""
     style="opacity:1;fill:#a02c2c">
    <g
       id="g33"
       style="fill:#a02c2c">
      <svg
         version="1.1"
         width="442"
         height="498.978"
         viewBox="0 0 442 498.978"
         id="svg31"
         style="fill:#a02c2c">
        <g
           data-width="157.143"
           transform="translate(71)"
           id="g29"
           style="fill:#a02c2c">
          <path
             d="M 15.34,0 V -38.91 H 0.28 v -8.45 h 40.83 v 8.45 H 25.42 V 0 Z"
             transform="matrix(1,0,-0.01745506,1,0,273.989)"
             fill="#c7b286"
             stroke="#c7b286"
             stroke-width="0.118"
             data-glyph-w="50.464"
             data-glyph-h="71"
             data-glyph-ascender="60.989"
             data-glyph-descender="-10.011"
             id="path23"
             style="fill:#a02c2c" />
          <path
             d="m 23.36,-47.36 h 16.97 v 8.45 H 27.19 q -5.11,0 -7.45,0.71 -2.34,0.71 -3.91,2.77 v 0 q -1.06,1.42 -1.45,2.84 -0.39,1.42 -0.68,4.83 v 0 h 26.63 v 8.45 H 13.7 q 0.57,6.1 3.62,8.48 3.06,2.38 10.37,2.38 v 0 H 40.33 V 0 H 27.19 q -5.32,0 -9.37,-0.64 v 0 Q 11.43,-1.7 7.67,-6.25 v 0 q -5.4,-6.53 -5.4,-17.68 v 0 q 0,-12.35 7.6,-19.24 v 0 q 2.63,-2.34 5.57,-3.26 2.95,-0.93 7.92,-0.93 z"
             transform="matrix(1,0,-0.01745506,1,50.464,273.989)"
             fill="#c7b286"
             stroke="#c7b286"
             stroke-width="0.118"
             data-glyph-w="52.452"
             data-glyph-h="71"
             data-glyph-ascender="60.989"
             data-glyph-descender="-10.011"
             id="path25"
             style="fill:#a02c2c" />
          <path
             d="M 0.28,0 16.4,-23.93 0.85,-47.36 h 12.36 l 9.3,15.62 10.08,-15.62 H 44.8 L 28.76,-23.93 44.8,0 H 32.94 L 22.51,-16.26 12.28,0 Z"
             transform="matrix(1,0,-0.01745506,1,102.916,273.989)"
             fill="#c7b286"
             stroke="#c7b286"
             stroke-width="0.118"
             data-glyph-w="54.227"
             data-glyph-h="71"
             data-glyph-ascender="60.989"
             data-glyph-descender="-10.011"
             id="path27"
             style="fill:#a02c2c" />
        </g>
      </svg>
    </g>
  </g>
  <g
     id="shape_CKlQXO49Sd"
     transform="matrix(1.0645542,0,0,1.3272843,1.61594,-34.557063)"
     filter=""
     style="opacity:1;fill:#a02c2c">
    <g
       id="g48"
       style="fill:#a02c2c">
      <svg
         version="1.1"
         width="168"
         height="175"
         viewBox="0 0 168 175"
         id="svg46"
         style="fill:#a02c2c">
        <g
           data-width="67.05"
           transform="translate(25)"
           id="g44"
           style="fill:#a02c2c">
          <path
             d="M 4.83,0 H 2.5 v -18.32 h 10.58 v 1.94 H 4.83 v 6.2 h 7 v 1.96 h -7 z"
             transform="translate(0,97)"
             fill="#c7b286"
             stroke="#c7b286"
             stroke-width="0.042"
             data-glyph-w="13.8"
             data-glyph-h="25"
             data-glyph-ascender="22"
             data-glyph-descender="-3"
             id="path36"
             style="fill:#a02c2c" />
          <path
             d="m 9,0.33 v 0 Q 7.15,0.33 5.65,-0.43 4.15,-1.18 3.29,-2.9 2.43,-4.63 2.43,-7.58 v 0 -10.74 H 4.75 V -7.5 q 0,2.2 0.56,3.47 0.57,1.28 1.54,1.8 Q 7.83,-1.7 9,-1.7 v 0 q 1.23,0 2.21,-0.53 0.99,-0.52 1.58,-1.8 0.59,-1.27 0.59,-3.47 v 0 -10.82 h 2.22 v 10.74 q 0,2.95 -0.86,4.68 -0.86,1.72 -2.36,2.47 Q 10.88,0.33 9,0.33 Z"
             transform="translate(13.8,97)"
             fill="#c7b286"
             stroke="#c7b286"
             stroke-width="0.042"
             data-glyph-w="18.025"
             data-glyph-h="25"
             data-glyph-ascender="22"
             data-glyph-descender="-3"
             id="path38"
             style="fill:#a02c2c" />
          <path
             d="M 4.7,0 H 2.5 v -18.32 h 2.4 l 6.68,11.54 1.95,3.78 h 0.12 q -0.02,-0.5 -0.07,-1 v 0 q -0.23,-2.45 -0.23,-4.8 v 0 -9.52 h 2.2 V 0 H 13.18 L 6.5,-11.58 4.53,-15.35 H 4.42 q 0.06,0.77 0.11,1.6 v 0 q 0.17,2.05 0.17,4.12 v 0 z"
             transform="translate(31.825,97)"
             fill="#c7b286"
             stroke="#c7b286"
             stroke-width="0.042"
             data-glyph-w="18.05"
             data-glyph-h="25"
             data-glyph-ascender="22"
             data-glyph-descender="-3"
             id="path40"
             style="fill:#a02c2c" />
          <path
             d="M 7.2,0 H 2.5 v -18.32 h 4.6 q 4.23,0 6.44,2.36 2.21,2.36 2.21,6.74 v 0 q 0,4.34 -2.2,6.78 Q 11.35,0 7.2,0 Z M 4.83,-16.45 V -1.9 H 6.9 q 3.25,0 4.85,-1.93 1.6,-1.92 1.6,-5.39 v 0 q 0,-3.51 -1.6,-5.37 -1.6,-1.86 -4.85,-1.86 v 0 z"
             transform="translate(49.875,97)"
             fill="#c7b286"
             stroke="#c7b286"
             stroke-width="0.042"
             data-glyph-w="17.175"
             data-glyph-h="25"
             data-glyph-ascender="22"
             data-glyph-descender="-3"
             id="path42"
             style="fill:#a02c2c" />
        </g>
      </svg>
    </g>
  </g>
  <defs
     id="defs57">
    <pattern
       id="wm_tile"
       x="0"
       y="0"
       width="20%"
       height="27%"
       patternunits="objectBoundingBox">
      <g
         id="wm_lm"
         transform="translate(-188.000000, -323.000000)"
         fill="#cccccc">
        <text
           font-size="15"
           transform="translate(270.490979, 373.245789) rotate(-390.000000) translate(-270.490979, -373.245789)"
           id="text53"><tspan
             x="187.490979"
             opacity=".3"
             y="378.245789"
             id="tspan51">copyright © copyright © </tspan></text>
      </g>
    </pattern>
  </defs>
</svg>
